<svg xmlns="http://www.w3.org/2000/svg" xmlns:xlink="http://www.w3.org/1999/xlink" width="500" zoomAndPan="magnify" viewBox="0 0 375 374.999991" height="500" preserveAspectRatio="xMidYMid meet" version="1.0"><defs><clipPath id="f37a5db1ab"><path d="M 108.355469 187.078125 L 269.785156 187.078125 L 269.785156 313.503906 L 108.355469 313.503906 Z M 108.355469 187.078125 " clip-rule="nonzero"/></clipPath><clipPath id="094c2530c1"><path d="M 160.761719 195.832031 C 168.574219 190.480469 170.925781 189.730469 174.03125 189.089844 C 178.523438 188.128906 184.945312 187.804688 190.828125 187.699219 C 197.140625 187.484375 204.414062 187.378906 210.621094 188.449219 C 216.398438 189.519531 221.75 191.230469 226.777344 193.582031 C 231.804688 196.042969 236.300781 198.828125 241.007812 203.214844 C 247.105469 208.992188 255.023438 219.476562 259.195312 226.429688 C 262.085938 231.351562 263.691406 236.058594 264.972656 240.019531 C 265.9375 242.800781 266.257812 244.191406 266.792969 247.402344 C 267.863281 253.5 270.003906 267.515625 269.144531 273.613281 C 268.71875 277.144531 267.542969 279.175781 266.148438 281.636719 C 264.652344 284.207031 263.046875 286.453125 260.480469 288.699219 C 256.734375 291.910156 250.636719 295.226562 244.75 297.792969 C 238.011719 300.898438 230.523438 303.25 221.855469 305.496094 C 211.050781 308.386719 196.285156 311.273438 184.835938 312.453125 C 174.992188 313.414062 163.867188 313.308594 157.234375 312.773438 C 153.378906 312.558594 151.777344 312.128906 148.351562 311.382812 C 143.644531 310.417969 136.691406 309.027344 131.554688 306.996094 C 126.632812 305.070312 121.496094 302.609375 118.074219 299.828125 C 115.292969 297.578125 113.367188 295.546875 111.867188 292.335938 C 109.941406 288.378906 109.515625 282.601562 108.980469 277.039062 C 108.445312 270.402344 108.230469 263.023438 109.191406 255.425781 C 110.261719 246.542969 113.472656 233.382812 115.828125 227.070312 C 117.109375 223.648438 118.289062 221.617188 119.785156 219.476562 C 121.070312 217.765625 122.03125 216.800781 123.957031 214.980469 C 127.488281 211.878906 134.550781 206.207031 139.363281 203 C 143.324219 200.429688 147.066406 198.292969 150.8125 196.792969 C 153.914062 195.507812 157.445312 194.652344 160.121094 194.226562 C 162.046875 194.011719 163.972656 193.796875 165.148438 194.226562 C 165.898438 194.441406 166.539062 194.867188 166.96875 195.507812 C 167.398438 196.257812 167.824219 197.757812 167.398438 198.613281 C 166.96875 199.574219 165.042969 200.859375 163.972656 200.859375 C 163.011719 200.859375 161.726562 200.003906 161.191406 199.253906 C 160.761719 198.398438 160.65625 196.902344 161.085938 196.042969 C 161.511719 195.1875 162.796875 194.226562 163.652344 194.117188 C 164.613281 194.011719 166.007812 194.546875 166.753906 195.1875 C 167.289062 195.722656 167.609375 196.472656 167.609375 197.222656 C 167.609375 198.078125 167.289062 199.359375 166.328125 200.109375 C 164.402344 201.820312 157.234375 201.394531 153.167969 202.890625 C 149.421875 204.28125 146.746094 205.996094 143.003906 208.457031 C 137.867188 211.878906 129.199219 217.871094 125.347656 222.363281 C 122.78125 225.574219 121.816406 227.714844 120.320312 231.671875 C 118.074219 237.769531 115.828125 248.042969 114.972656 255.851562 C 114.113281 263.023438 114.328125 270.617188 114.648438 276.824219 C 114.972656 281.53125 114.863281 286.132812 116.148438 289.554688 C 117.21875 292.230469 118.609375 293.941406 120.855469 295.867188 C 123.742188 298.328125 128.023438 300.574219 132.945312 302.394531 C 139.472656 304.855469 148.351562 307.101562 157.339844 307.957031 C 168.039062 308.921875 181.839844 307.957031 192.859375 306.675781 C 202.597656 305.390625 211.691406 303.144531 220.25 300.789062 C 228.167969 298.542969 236.191406 295.976562 242.503906 292.980469 C 247.855469 290.519531 253.097656 287.523438 256.308594 284.742188 C 258.554688 282.921875 259.945312 281.101562 261.230469 279.070312 C 262.40625 277.25 263.367188 275.753906 263.796875 273.292969 C 264.652344 268.90625 264.011719 261.09375 263.15625 254.996094 C 262.191406 248.363281 259.730469 239.484375 258.019531 234.882812 C 257.054688 232.421875 256.519531 231.566406 255.128906 229.320312 C 252.457031 225.039062 246.25 216.480469 242.078125 211.878906 C 238.972656 208.457031 236.511719 206.101562 233.089844 203.640625 C 229.34375 200.964844 224.53125 198.292969 220.464844 196.578125 C 217.042969 195.082031 214.257812 194.226562 210.300781 193.582031 C 204.949219 192.726562 197.140625 192.941406 191.042969 193.15625 C 185.585938 193.476562 180.234375 193.582031 175.421875 194.867188 C 170.714844 196.152344 164.9375 201.179688 162.367188 200.859375 C 161.085938 200.753906 160.015625 199.789062 159.800781 198.933594 C 159.480469 198.078125 160.761719 195.832031 160.761719 195.832031 " clip-rule="nonzero"/></clipPath><clipPath id="8e55ebd3ff"><path d="M 0.355469 0.199219 L 161.785156 0.199219 L 161.785156 126.441406 L 0.355469 126.441406 Z M 0.355469 0.199219 " clip-rule="nonzero"/></clipPath><clipPath id="9b0d64932b"><path d="M 52.761719 8.832031 C 60.574219 3.480469 62.925781 2.730469 66.03125 2.089844 C 70.523438 1.128906 76.945312 0.804688 82.828125 0.699219 C 89.140625 0.484375 96.414062 0.378906 102.621094 1.449219 C 108.398438 2.519531 113.75 4.230469 118.777344 6.582031 C 123.804688 9.042969 128.300781 11.828125 133.007812 16.214844 C 139.105469 21.992188 147.023438 32.476562 151.195312 39.429688 C 154.085938 44.351562 155.691406 49.058594 156.972656 53.019531 C 157.9375 55.800781 158.257812 57.191406 158.792969 60.402344 C 159.863281 66.5 162.003906 80.515625 161.144531 86.613281 C 160.71875 90.144531 159.542969 92.175781 158.148438 94.636719 C 156.652344 97.207031 155.046875 99.453125 152.480469 101.699219 C 148.734375 104.910156 142.636719 108.226562 136.75 110.792969 C 130.011719 113.898438 122.523438 116.25 113.855469 118.496094 C 103.050781 121.386719 88.285156 124.273438 76.835938 125.453125 C 66.992188 126.414062 55.867188 126.308594 49.234375 125.773438 C 45.378906 125.558594 43.777344 125.128906 40.351562 124.382812 C 35.644531 123.417969 28.691406 122.027344 23.554688 119.996094 C 18.632812 118.070312 13.496094 115.609375 10.074219 112.828125 C 7.292969 110.578125 5.367188 108.546875 3.867188 105.335938 C 1.941406 101.378906 1.515625 95.601562 0.980469 90.039062 C 0.445312 83.402344 0.230469 76.023438 1.191406 68.425781 C 2.261719 59.542969 5.472656 46.382812 7.828125 40.070312 C 9.109375 36.648438 10.289062 34.617188 11.785156 32.476562 C 13.070312 30.765625 14.03125 29.800781 15.957031 27.980469 C 19.488281 24.878906 26.550781 19.207031 31.363281 16 C 35.324219 13.429688 39.066406 11.292969 42.8125 9.792969 C 45.914062 8.507812 49.445312 7.652344 52.121094 7.226562 C 54.046875 7.011719 55.972656 6.796875 57.148438 7.226562 C 57.898438 7.441406 58.539062 7.867188 58.96875 8.507812 C 59.398438 9.257812 59.824219 10.757812 59.398438 11.613281 C 58.96875 12.574219 57.042969 13.859375 55.972656 13.859375 C 55.011719 13.859375 53.726562 13.003906 53.191406 12.253906 C 52.761719 11.398438 52.65625 9.902344 53.085938 9.042969 C 53.511719 8.1875 54.796875 7.226562 55.652344 7.117188 C 56.613281 7.011719 58.007812 7.546875 58.753906 8.1875 C 59.289062 8.722656 59.609375 9.472656 59.609375 10.222656 C 59.609375 11.078125 59.289062 12.359375 58.328125 13.109375 C 56.402344 14.820312 49.234375 14.394531 45.167969 15.890625 C 41.421875 17.28125 38.746094 18.996094 35.003906 21.457031 C 29.867188 24.878906 21.199219 30.871094 17.347656 35.363281 C 14.78125 38.574219 13.816406 40.714844 12.320312 44.671875 C 10.074219 50.769531 7.828125 61.042969 6.972656 68.851562 C 6.113281 76.023438 6.328125 83.617188 6.648438 89.824219 C 6.972656 94.53125 6.863281 99.132812 8.148438 102.554688 C 9.21875 105.230469 10.609375 106.941406 12.855469 108.867188 C 15.742188 111.328125 20.023438 113.574219 24.945312 115.394531 C 31.472656 117.855469 40.351562 120.101562 49.339844 120.957031 C 60.039062 121.921875 73.839844 120.957031 84.859375 119.675781 C 94.597656 118.390625 103.691406 116.144531 112.25 113.789062 C 120.167969 111.542969 128.191406 108.976562 134.503906 105.980469 C 139.855469 103.519531 145.097656 100.523438 148.308594 97.742188 C 150.554688 95.921875 151.945312 94.101562 153.230469 92.070312 C 154.40625 90.25 155.367188 88.753906 155.796875 86.292969 C 156.652344 81.90625 156.011719 74.09375 155.15625 67.996094 C 154.191406 61.363281 151.730469 52.484375 150.019531 47.882812 C 149.054688 45.421875 148.519531 44.566406 147.128906 42.320312 C 144.457031 38.039062 138.25 29.480469 134.078125 24.878906 C 130.972656 21.457031 128.511719 19.101562 125.089844 16.640625 C 121.34375 13.964844 116.53125 11.292969 112.464844 9.578125 C 109.042969 8.082031 106.257812 7.226562 102.300781 6.582031 C 96.949219 5.726562 89.140625 5.941406 83.042969 6.15625 C 77.585938 6.476562 72.234375 6.582031 67.421875 7.867188 C 62.714844 9.152344 56.9375 14.179688 54.367188 13.859375 C 53.085938 13.753906 52.015625 12.789062 51.800781 11.933594 C 51.480469 11.078125 52.761719 8.832031 52.761719 8.832031 " clip-rule="nonzero"/></clipPath><clipPath id="11dfbcb390"><rect x="0" width="162" y="0" height="127"/></clipPath><clipPath id="5f8e1f7104"><path d="M 93.664062 296.050781 L 124.539062 296.050781 L 124.539062 312.917969 L 93.664062 312.917969 Z M 93.664062 296.050781 " clip-rule="nonzero"/></clipPath><clipPath id="192ba13949"><path d="M 122.140625 304.535156 C 108.445312 313.199219 107.695312 313.199219 106.199219 312.664062 C 103.09375 311.273438 94.964844 304.320312 94 301.109375 C 93.464844 299.613281 94.105469 297.792969 94.855469 296.9375 C 95.605469 296.296875 97.210938 296.082031 98.066406 296.1875 C 98.816406 296.402344 99.5625 296.832031 99.992188 297.472656 C 100.417969 298.222656 100.742188 299.828125 100.527344 300.683594 C 100.3125 301.429688 99.777344 302.074219 99.242188 302.5 C 98.601562 302.929688 97.746094 303.25 96.996094 303.144531 C 96.140625 303.035156 94.75 302.289062 94.214844 301.539062 C 93.679688 300.683594 93.574219 299.078125 94 298.222656 C 94.320312 297.367188 95.710938 296.402344 96.566406 296.1875 C 97.316406 295.976562 97.960938 296.082031 98.816406 296.511719 C 100.527344 297.367188 103.414062 301.644531 105.449219 303.035156 C 106.839844 304 108.015625 304.960938 109.40625 304.855469 C 111.117188 304.535156 112.617188 301.324219 114.648438 300.253906 C 116.789062 299.078125 120.214844 297.792969 121.816406 298.113281 C 122.78125 298.222656 123.421875 298.757812 123.851562 299.292969 C 124.277344 299.933594 124.601562 300.789062 124.492188 301.539062 C 124.277344 302.5 122.140625 304.535156 122.140625 304.535156 " clip-rule="nonzero"/></clipPath><clipPath id="93e80a5985"><path d="M 0.664062 0.0507812 L 31.539062 0.0507812 L 31.539062 16.917969 L 0.664062 16.917969 Z M 0.664062 0.0507812 " clip-rule="nonzero"/></clipPath><clipPath id="39c4bd4fcf"><path d="M 29.140625 8.535156 C 15.445312 17.199219 14.695312 17.199219 13.199219 16.664062 C 10.09375 15.273438 1.964844 8.320312 1 5.109375 C 0.464844 3.613281 1.105469 1.792969 1.855469 0.9375 C 2.605469 0.296875 4.210938 0.0820312 5.066406 0.1875 C 5.816406 0.402344 6.5625 0.832031 6.992188 1.472656 C 7.417969 2.222656 7.742188 3.828125 7.527344 4.683594 C 7.3125 5.429688 6.777344 6.074219 6.242188 6.5 C 5.601562 6.929688 4.746094 7.25 3.996094 7.144531 C 3.140625 7.035156 1.75 6.289062 1.214844 5.539062 C 0.679688 4.683594 0.574219 3.078125 1 2.222656 C 1.320312 1.367188 2.710938 0.402344 3.566406 0.1875 C 4.316406 -0.0234375 4.960938 0.0820312 5.816406 0.511719 C 7.527344 1.367188 10.414062 5.644531 12.449219 7.035156 C 13.839844 8 15.015625 8.960938 16.40625 8.855469 C 18.117188 8.535156 19.617188 5.324219 21.648438 4.253906 C 23.789062 3.078125 27.214844 1.792969 28.816406 2.113281 C 29.78125 2.222656 30.421875 2.757812 30.851562 3.292969 C 31.277344 3.933594 31.601562 4.789062 31.492188 5.539062 C 31.277344 6.5 29.140625 8.535156 29.140625 8.535156 " clip-rule="nonzero"/></clipPath><clipPath id="e793e79d43"><rect x="0" width="32" y="0" height="17"/></clipPath><clipPath id="73e5117d4a"><path d="M 170 300 L 223 300 L 223 324 L 170 324 Z M 170 300 " clip-rule="nonzero"/></clipPath><clipPath id="5cbaf6b6f3"><path d="M 170.566406 298.335938 L 222.554688 300.886719 L 221.351562 325.414062 L 169.363281 322.863281 Z M 170.566406 298.335938 " clip-rule="nonzero"/></clipPath><clipPath id="ae22aaad67"><path d="M 219.90625 307.375 C 191.652344 324.304688 190.15625 324.230469 188.152344 323.597656 C 185.414062 322.605469 182.472656 319.246094 179.710938 316.648438 C 176.742188 313.824219 172.351562 309.429688 171.082031 306.90625 C 170.5 305.699219 170.230469 304.613281 170.492188 303.664062 C 170.753906 302.710938 171.878906 301.589844 172.855469 301.316406 C 173.726562 301.035156 175.320312 301.328125 176.035156 302.007812 C 176.863281 302.582031 177.542969 304.007812 177.386719 305.074219 C 177.226562 306.136719 175.640625 307.878906 174.550781 308.253906 C 173.578125 308.421875 171.992188 308.019531 171.386719 307.242188 C 170.574219 306.34375 170.261719 303.972656 170.738281 303.03125 C 171.210938 302.089844 172.640625 301.304688 173.609375 301.246094 C 174.367188 301.066406 174.898438 301.199219 175.726562 301.777344 C 177.804688 303.058594 181.589844 308.921875 184.453125 311.632812 C 186.808594 313.890625 188.257812 317.066406 191.464844 317.226562 C 197.019531 317.496094 211.214844 303.304688 216.015625 301.503906 C 217.761719 300.839844 218.949219 300.683594 220.007812 300.949219 C 220.746094 301.203125 221.472656 301.664062 221.867188 302.328125 C 222.257812 303.097656 222.511719 304.5 222.148438 305.339844 C 221.894531 306.183594 219.90625 307.375 219.90625 307.375 " clip-rule="nonzero"/></clipPath><clipPath id="9f6b0a86bd"><path d="M 0.160156 0.480469 L 52.71875 0.480469 L 52.71875 24 L 0.160156 24 Z M 0.160156 0.480469 " clip-rule="nonzero"/></clipPath><clipPath id="5c88390165"><path d="M 0.566406 -1.664062 L 52.554688 0.886719 L 51.351562 25.414062 L -0.636719 22.863281 Z M 0.566406 -1.664062 " clip-rule="nonzero"/></clipPath><clipPath id="4f91543834"><path d="M 49.90625 7.375 C 21.652344 24.304688 20.15625 24.230469 18.152344 23.597656 C 15.414062 22.605469 12.472656 19.246094 9.710938 16.648438 C 6.742188 13.824219 2.351562 9.429688 1.082031 6.90625 C 0.5 5.699219 0.230469 4.613281 0.492188 3.664062 C 0.753906 2.710938 1.878906 1.589844 2.855469 1.316406 C 3.726562 1.035156 5.320312 1.328125 6.035156 2.007812 C 6.863281 2.582031 7.542969 4.007812 7.386719 5.074219 C 7.226562 6.136719 5.640625 7.878906 4.550781 8.253906 C 3.578125 8.421875 1.992188 8.019531 1.386719 7.242188 C 0.574219 6.34375 0.261719 3.972656 0.738281 3.03125 C 1.210938 2.089844 2.640625 1.304688 3.609375 1.246094 C 4.367188 1.066406 4.898438 1.199219 5.726562 1.777344 C 7.804688 3.058594 11.589844 8.921875 14.453125 11.632812 C 16.808594 13.890625 18.257812 17.066406 21.464844 17.226562 C 27.019531 17.496094 41.214844 3.304688 46.015625 1.503906 C 47.761719 0.839844 48.949219 0.683594 50.007812 0.949219 C 50.746094 1.203125 51.472656 1.664062 51.867188 2.328125 C 52.257812 3.097656 52.511719 4.5 52.148438 5.339844 C 51.894531 6.183594 49.90625 7.375 49.90625 7.375 " clip-rule="nonzero"/></clipPath><clipPath id="6f3ab08dc0"><rect x="0" width="53" y="0" height="24"/></clipPath><clipPath id="73e1693b2f"><path d="M 150.65625 244.773438 L 157.351562 244.773438 L 157.351562 251.46875 L 150.65625 251.46875 Z M 150.65625 244.773438 " clip-rule="nonzero"/></clipPath><clipPath id="39a76d581c"><path d="M 154.003906 244.773438 C 152.152344 244.773438 150.65625 246.273438 150.65625 248.121094 C 150.65625 249.972656 152.152344 251.46875 154.003906 251.46875 C 155.851562 251.46875 157.351562 249.972656 157.351562 248.121094 C 157.351562 246.273438 155.851562 244.773438 154.003906 244.773438 Z M 154.003906 244.773438 " clip-rule="nonzero"/></clipPath><clipPath id="543b8ec6b6"><path d="M 0.65625 0.773438 L 7.351562 0.773438 L 7.351562 7.46875 L 0.65625 7.46875 Z M 0.65625 0.773438 " clip-rule="nonzero"/></clipPath><clipPath id="3ed29f771a"><path d="M 4.003906 0.773438 C 2.152344 0.773438 0.65625 2.273438 0.65625 4.121094 C 0.65625 5.972656 2.152344 7.46875 4.003906 7.46875 C 5.851562 7.46875 7.351562 5.972656 7.351562 4.121094 C 7.351562 2.273438 5.851562 0.773438 4.003906 0.773438 Z M 4.003906 0.773438 " clip-rule="nonzero"/></clipPath><clipPath id="37fc4420e7"><rect x="0" width="8" y="0" height="8"/></clipPath><clipPath id="bab003c12a"><path d="M 212.332031 246.941406 L 219.027344 246.941406 L 219.027344 253.636719 L 212.332031 253.636719 Z M 212.332031 246.941406 " clip-rule="nonzero"/></clipPath><clipPath id="e3b742c955"><path d="M 215.679688 246.941406 C 213.832031 246.941406 212.332031 248.441406 212.332031 250.289062 C 212.332031 252.136719 213.832031 253.636719 215.679688 253.636719 C 217.53125 253.636719 219.027344 252.136719 219.027344 250.289062 C 219.027344 248.441406 217.53125 246.941406 215.679688 246.941406 Z M 215.679688 246.941406 " clip-rule="nonzero"/></clipPath><clipPath id="d19c11ddff"><path d="M 0.332031 0.941406 L 7.027344 0.941406 L 7.027344 7.636719 L 0.332031 7.636719 Z M 0.332031 0.941406 " clip-rule="nonzero"/></clipPath><clipPath id="dec59c7842"><path d="M 3.679688 0.941406 C 1.832031 0.941406 0.332031 2.441406 0.332031 4.289062 C 0.332031 6.136719 1.832031 7.636719 3.679688 7.636719 C 5.53125 7.636719 7.027344 6.136719 7.027344 4.289062 C 7.027344 2.441406 5.53125 0.941406 3.679688 0.941406 Z M 3.679688 0.941406 " clip-rule="nonzero"/></clipPath><clipPath id="ebb183defc"><rect x="0" width="8" y="0" height="8"/></clipPath><clipPath id="0bd99df0a9"><path d="M 161.648438 128.636719 L 188.050781 128.636719 L 188.050781 158.695312 L 161.648438 158.695312 Z M 161.648438 128.636719 " clip-rule="nonzero"/></clipPath><clipPath id="ce0f663be0"><path d="M 168.042969 133.210938 C 174.355469 153.324219 171.464844 153.753906 170.929688 153.21875 C 170.289062 152.578125 171.359375 149.796875 172.320312 147.335938 C 173.925781 143.054688 179.167969 132.460938 181.84375 130 C 182.914062 129.039062 183.875 128.71875 184.839844 128.71875 C 185.800781 128.824219 187.085938 129.574219 187.515625 130.429688 C 188.050781 131.5 187.726562 133.746094 186.980469 134.601562 C 186.335938 135.351562 184.839844 135.777344 183.875 135.566406 C 182.914062 135.457031 181.738281 134.496094 181.414062 133.53125 C 180.988281 132.675781 180.988281 131.070312 181.628906 130.324219 C 182.273438 129.464844 184.519531 128.609375 185.589844 128.929688 C 186.445312 129.039062 187.515625 130.324219 187.835938 131.179688 C 188.15625 131.820312 188.050781 132.355469 187.835938 133.425781 C 187.085938 136.101562 181.84375 143.160156 179.917969 147.335938 C 178.527344 150.542969 178.097656 154.074219 176.816406 156 C 175.960938 157.285156 175.101562 158.566406 174.035156 158.675781 C 172.535156 158.675781 170.289062 156.964844 168.683594 154.824219 C 165.902344 150.863281 161.941406 138.238281 161.730469 134.921875 C 161.730469 133.746094 161.835938 133.210938 162.265625 132.570312 C 162.691406 132.035156 163.441406 131.390625 164.191406 131.285156 C 164.832031 131.070312 165.796875 131.179688 166.4375 131.5 C 167.1875 131.820312 168.042969 133.210938 168.042969 133.210938 " clip-rule="nonzero"/></clipPath><clipPath id="2e0ecf6235"><path d="M 0.648438 0.636719 L 27.050781 0.636719 L 27.050781 30.695312 L 0.648438 30.695312 Z M 0.648438 0.636719 " clip-rule="nonzero"/></clipPath><clipPath id="959781e967"><path d="M 7.042969 5.210938 C 13.355469 25.324219 10.464844 25.753906 9.929688 25.21875 C 9.289062 24.578125 10.359375 21.796875 11.320312 19.335938 C 12.925781 15.054688 18.167969 4.460938 20.84375 2 C 21.914062 1.039062 22.875 0.71875 23.839844 0.71875 C 24.800781 0.824219 26.085938 1.574219 26.515625 2.429688 C 27.050781 3.5 26.726562 5.746094 25.980469 6.601562 C 25.335938 7.351562 23.839844 7.777344 22.875 7.566406 C 21.914062 7.457031 20.738281 6.496094 20.414062 5.53125 C 19.988281 4.675781 19.988281 3.070312 20.628906 2.324219 C 21.273438 1.464844 23.519531 0.609375 24.589844 0.929688 C 25.445312 1.039062 26.515625 2.324219 26.835938 3.179688 C 27.15625 3.820312 27.050781 4.355469 26.835938 5.425781 C 26.085938 8.101562 20.84375 15.160156 18.917969 19.335938 C 17.527344 22.542969 17.097656 26.074219 15.816406 28 C 14.960938 29.285156 14.101562 30.566406 13.035156 30.675781 C 11.535156 30.675781 9.289062 28.964844 7.683594 26.824219 C 4.902344 22.863281 0.941406 10.238281 0.730469 6.921875 C 0.730469 5.746094 0.835938 5.210938 1.265625 4.570312 C 1.691406 4.035156 2.441406 3.390625 3.191406 3.285156 C 3.832031 3.070312 4.796875 3.179688 5.4375 3.5 C 6.1875 3.820312 7.042969 5.210938 7.042969 5.210938 " clip-rule="nonzero"/></clipPath><clipPath id="928bc80258"><rect x="0" width="28" y="0" height="31"/></clipPath><clipPath id="aa21dd231f"><path d="M 128.085938 28.238281 L 242.261719 28.238281 L 242.261719 138.253906 L 128.085938 138.253906 Z M 128.085938 28.238281 " clip-rule="nonzero"/></clipPath><clipPath id="3267c640f9"><path d="M 182.273438 125.828125 C 203.777344 123.152344 205.597656 123.046875 208.484375 121.550781 C 212.765625 119.300781 218.96875 113.523438 222.609375 109.03125 C 225.816406 105.179688 227.851562 101.113281 229.777344 96.621094 C 231.917969 91.804688 233.519531 86.347656 234.484375 80.890625 C 235.339844 75.222656 235.980469 67.945312 235.339844 63.34375 C 234.910156 60.242188 234.269531 58.421875 232.878906 55.855469 C 231.058594 52.539062 227.851562 48.152344 224.535156 45.476562 C 221.324219 42.910156 217.152344 41.519531 213.191406 40.128906 C 209.234375 38.738281 205.808594 37.882812 200.886719 37.132812 C 193.71875 36.0625 182.058594 35.097656 174.140625 35.527344 C 167.613281 35.847656 161.621094 36.703125 156.699219 38.523438 C 152.527344 39.914062 148.890625 41.734375 145.894531 44.40625 C 142.898438 47.191406 140.652344 51.578125 138.832031 54.785156 C 137.441406 57.460938 136.480469 58.957031 135.835938 62.277344 C 134.554688 68.480469 135.089844 81 135.625 89.453125 C 136.050781 96.832031 136.90625 105.285156 138.296875 110.316406 C 139.046875 113.203125 139.367188 114.808594 140.972656 116.949219 C 143.328125 120.15625 148.25 124.222656 152.421875 126.578125 C 156.59375 128.824219 163.761719 129.679688 166.007812 131.070312 C 166.972656 131.605469 167.398438 131.925781 167.722656 132.675781 C 168.148438 133.53125 168.253906 135.242188 167.722656 136.101562 C 167.292969 137.0625 165.902344 137.917969 164.9375 138.027344 C 163.871094 138.132812 162.371094 137.597656 161.730469 136.847656 C 161.085938 136.101562 160.660156 134.496094 160.980469 133.425781 C 161.195312 132.460938 162.371094 131.285156 163.335938 130.964844 C 164.296875 130.644531 165.902344 130.855469 166.652344 131.5 C 167.507812 132.140625 168.253906 133.53125 168.148438 134.601562 C 168.042969 135.777344 166.757812 137.492188 165.261719 138.027344 C 163.226562 138.773438 158.734375 137.167969 155.738281 136.101562 C 153.0625 135.242188 151.03125 134.066406 148.355469 132.355469 C 144.824219 130.109375 139.261719 126.257812 136.691406 123.261719 C 134.980469 121.226562 134.339844 119.410156 133.484375 117.269531 C 132.519531 114.808594 131.984375 112.667969 131.238281 109.351562 C 130.273438 104.214844 129.203125 96.40625 128.667969 89.453125 C 128.242188 81.855469 128.242188 71.582031 128.667969 65.699219 C 128.882812 62.0625 128.882812 60.242188 129.953125 57.140625 C 131.558594 52.644531 136.050781 45.691406 139.046875 42.054688 C 141.078125 39.484375 142.578125 37.988281 145.144531 36.382812 C 148.355469 34.351562 153.0625 32.960938 157.449219 31.675781 C 162.371094 30.285156 168.578125 29.109375 173.285156 28.679688 C 177.027344 28.253906 179.8125 28.253906 183.449219 28.359375 C 187.726562 28.464844 192.648438 28.785156 197.359375 29.535156 C 202.492188 30.285156 208.164062 31.355469 213.085938 32.960938 C 217.898438 34.566406 223.25 36.8125 226.78125 39.058594 C 229.5625 40.769531 231.488281 42.480469 233.308594 44.515625 C 235.125 46.441406 236.515625 48.6875 237.800781 51.148438 C 239.296875 53.824219 240.582031 56.390625 241.332031 60.027344 C 242.292969 65.269531 242.402344 73.617188 241.4375 80.144531 C 240.582031 86.667969 238.230469 93.625 235.875 99.1875 C 233.84375 103.894531 232.238281 107.53125 228.921875 111.597656 C 224.535156 116.949219 217.792969 123.582031 210.519531 127.003906 C 202.601562 130.644531 187.195312 133.316406 182.808594 131.925781 C 181.09375 131.390625 179.917969 130.109375 179.8125 129.039062 C 179.8125 128.074219 182.273438 125.828125 182.273438 125.828125 " clip-rule="nonzero"/></clipPath><clipPath id="f393d96025"><path d="M 0.160156 0.238281 L 114.261719 0.238281 L 114.261719 110.253906 L 0.160156 110.253906 Z M 0.160156 0.238281 " clip-rule="nonzero"/></clipPath><clipPath id="60fda81702"><path d="M 54.273438 97.828125 C 75.777344 95.152344 77.597656 95.046875 80.484375 93.550781 C 84.765625 91.300781 90.96875 85.523438 94.609375 81.03125 C 97.816406 77.179688 99.851562 73.113281 101.777344 68.621094 C 103.917969 63.804688 105.519531 58.347656 106.484375 52.890625 C 107.339844 47.222656 107.980469 39.945312 107.339844 35.34375 C 106.910156 32.242188 106.269531 30.421875 104.878906 27.855469 C 103.058594 24.539062 99.851562 20.152344 96.535156 17.476562 C 93.324219 14.910156 89.152344 13.519531 85.191406 12.128906 C 81.234375 10.738281 77.808594 9.882812 72.886719 9.132812 C 65.71875 8.0625 54.058594 7.097656 46.140625 7.527344 C 39.613281 7.847656 33.621094 8.703125 28.699219 10.523438 C 24.527344 11.914062 20.890625 13.734375 17.894531 16.40625 C 14.898438 19.191406 12.652344 23.578125 10.832031 26.785156 C 9.441406 29.460938 8.480469 30.957031 7.835938 34.277344 C 6.554688 40.480469 7.089844 53 7.625 61.453125 C 8.050781 68.832031 8.90625 77.285156 10.296875 82.316406 C 11.046875 85.203125 11.367188 86.808594 12.972656 88.949219 C 15.328125 92.15625 20.25 96.222656 24.421875 98.578125 C 28.59375 100.824219 35.761719 101.679688 38.007812 103.070312 C 38.972656 103.605469 39.398438 103.925781 39.722656 104.675781 C 40.148438 105.53125 40.253906 107.242188 39.722656 108.101562 C 39.292969 109.0625 37.902344 109.917969 36.9375 110.027344 C 35.871094 110.132812 34.371094 109.597656 33.730469 108.847656 C 33.085938 108.101562 32.660156 106.496094 32.980469 105.425781 C 33.195312 104.460938 34.371094 103.285156 35.335938 102.964844 C 36.296875 102.644531 37.902344 102.855469 38.652344 103.5 C 39.507812 104.140625 40.253906 105.53125 40.148438 106.601562 C 40.042969 107.777344 38.757812 109.492188 37.261719 110.027344 C 35.226562 110.773438 30.734375 109.167969 27.738281 108.101562 C 25.0625 107.242188 23.03125 106.066406 20.355469 104.355469 C 16.824219 102.109375 11.261719 98.257812 8.691406 95.261719 C 6.980469 93.226562 6.339844 91.410156 5.484375 89.269531 C 4.519531 86.808594 3.984375 84.667969 3.238281 81.351562 C 2.273438 76.214844 1.203125 68.40625 0.667969 61.453125 C 0.242188 53.855469 0.242188 43.582031 0.667969 37.699219 C 0.882812 34.0625 0.882812 32.242188 1.953125 29.140625 C 3.558594 24.644531 8.050781 17.691406 11.046875 14.054688 C 13.078125 11.484375 14.578125 9.988281 17.144531 8.382812 C 20.355469 6.351562 25.0625 4.960938 29.449219 3.675781 C 34.371094 2.285156 40.578125 1.109375 45.285156 0.679688 C 49.027344 0.253906 51.8125 0.253906 55.449219 0.359375 C 59.726562 0.464844 64.648438 0.785156 69.359375 1.535156 C 74.492188 2.285156 80.164062 3.355469 85.085938 4.960938 C 89.898438 6.566406 95.25 8.8125 98.78125 11.058594 C 101.5625 12.769531 103.488281 14.480469 105.308594 16.515625 C 107.125 18.441406 108.515625 20.6875 109.800781 23.148438 C 111.296875 25.824219 112.582031 28.390625 113.332031 32.027344 C 114.292969 37.269531 114.402344 45.617188 113.4375 52.144531 C 112.582031 58.667969 110.230469 65.625 107.875 71.1875 C 105.84375 75.894531 104.238281 79.53125 100.921875 83.597656 C 96.535156 88.949219 89.792969 95.582031 82.519531 99.003906 C 74.601562 102.644531 59.195312 105.316406 54.808594 103.925781 C 53.09375 103.390625 51.917969 102.109375 51.8125 101.039062 C 51.8125 100.074219 54.273438 97.828125 54.273438 97.828125 " clip-rule="nonzero"/></clipPath><clipPath id="115262a3b9"><rect x="0" width="115" y="0" height="111"/></clipPath><clipPath id="0fb8d99db3"><path d="M 176.054688 98.304688 L 182.617188 98.304688 L 182.617188 104.917969 L 176.054688 104.917969 Z M 176.054688 98.304688 " clip-rule="nonzero"/></clipPath><clipPath id="2f52fa2743"><path d="M 182.609375 100.660156 C 181.785156 104.261719 181.335938 104.5625 180.8125 104.710938 C 179.984375 105.011719 178.410156 104.863281 177.660156 104.5625 C 177.136719 104.335938 176.835938 103.886719 176.535156 103.4375 C 176.234375 102.988281 176.011719 102.460938 176.085938 101.863281 C 176.085938 101.035156 176.761719 99.613281 177.359375 99.011719 C 177.734375 98.5625 178.261719 98.335938 178.785156 98.335938 C 179.609375 98.261719 181.785156 99.238281 181.785156 99.238281 " clip-rule="nonzero"/></clipPath><clipPath id="0aa8adcdfc"><path d="M 0.0546875 0.304688 L 6.617188 0.304688 L 6.617188 6.917969 L 0.0546875 6.917969 Z M 0.0546875 0.304688 " clip-rule="nonzero"/></clipPath><clipPath id="46695e6633"><path d="M 6.609375 2.660156 C 5.785156 6.261719 5.335938 6.5625 4.8125 6.710938 C 3.984375 7.011719 2.410156 6.863281 1.660156 6.5625 C 1.136719 6.335938 0.835938 5.886719 0.535156 5.4375 C 0.234375 4.988281 0.0117188 4.460938 0.0859375 3.863281 C 0.0859375 3.035156 0.761719 1.613281 1.359375 1.011719 C 1.734375 0.5625 2.261719 0.335938 2.785156 0.335938 C 3.609375 0.261719 5.785156 1.238281 5.785156 1.238281 " clip-rule="nonzero"/></clipPath><clipPath id="053b189321"><rect x="0" width="7" y="0" height="7"/></clipPath><clipPath id="5ddbf42199"><path d="M 175.449219 52.792969 L 182.734375 52.792969 L 182.734375 86.410156 L 175.449219 86.410156 Z M 175.449219 52.792969 " clip-rule="nonzero"/></clipPath><clipPath id="1f4bc2f0da"><path d="M 182.460938 55.992188 C 182.386719 84.941406 182.085938 85.242188 181.636719 85.617188 C 181.1875 85.992188 180.511719 86.289062 179.910156 86.367188 C 179.3125 86.367188 178.5625 86.214844 178.035156 85.839844 C 177.585938 85.539062 177.0625 85.015625 176.910156 84.339844 C 176.6875 83.589844 176.761719 82.242188 177.285156 81.640625 C 177.734375 80.964844 179.011719 80.441406 179.835938 80.367188 C 180.4375 80.367188 181.109375 80.664062 181.5625 81.039062 C 182.085938 81.414062 182.460938 82.089844 182.609375 82.691406 C 182.761719 83.289062 182.761719 84.039062 182.460938 84.566406 C 182.085938 85.242188 180.960938 86.140625 180.210938 86.289062 C 179.609375 86.515625 178.859375 86.367188 178.335938 86.066406 C 177.660156 85.617188 177.136719 85.015625 176.761719 83.742188 C 175.410156 79.691406 175.035156 60.265625 176.085938 55.992188 C 176.386719 54.566406 176.761719 53.890625 177.4375 53.367188 C 178.035156 52.914062 178.9375 52.765625 179.609375 52.839844 C 180.359375 52.914062 181.1875 53.367188 181.636719 53.890625 C 182.085938 54.414062 182.460938 55.992188 182.460938 55.992188 " clip-rule="nonzero"/></clipPath><clipPath id="f08bb267db"><path d="M 0.449219 0.792969 L 7.734375 0.792969 L 7.734375 34.410156 L 0.449219 34.410156 Z M 0.449219 0.792969 " clip-rule="nonzero"/></clipPath><clipPath id="e6c4276066"><path d="M 7.460938 3.992188 C 7.386719 32.941406 7.085938 33.242188 6.636719 33.617188 C 6.1875 33.992188 5.511719 34.289062 4.910156 34.367188 C 4.3125 34.367188 3.5625 34.214844 3.035156 33.839844 C 2.585938 33.539062 2.0625 33.015625 1.910156 32.339844 C 1.6875 31.589844 1.761719 30.242188 2.285156 29.640625 C 2.734375 28.964844 4.011719 28.441406 4.835938 28.367188 C 5.4375 28.367188 6.109375 28.664062 6.5625 29.039062 C 7.085938 29.414062 7.460938 30.089844 7.609375 30.691406 C 7.761719 31.289062 7.761719 32.039062 7.460938 32.566406 C 7.085938 33.242188 5.960938 34.140625 5.210938 34.289062 C 4.609375 34.515625 3.859375 34.367188 3.335938 34.066406 C 2.660156 33.617188 2.136719 33.015625 1.761719 31.742188 C 0.410156 27.691406 0.0351562 8.265625 1.085938 3.992188 C 1.386719 2.566406 1.761719 1.890625 2.4375 1.367188 C 3.035156 0.914062 3.9375 0.765625 4.609375 0.839844 C 5.359375 0.914062 6.1875 1.367188 6.636719 1.890625 C 7.085938 2.414062 7.460938 3.992188 7.460938 3.992188 " clip-rule="nonzero"/></clipPath><clipPath id="b8a143998f"><rect x="0" width="8" y="0" height="35"/></clipPath><clipPath id="ede9d458e5"><path d="M 85.875 230.621094 L 113.769531 230.621094 L 113.769531 263.230469 L 85.875 263.230469 Z M 85.875 230.621094 " clip-rule="nonzero"/></clipPath><clipPath id="90d43e3d1e"><path d="M 107.125 261.042969 C 102.699219 252.640625 87.550781 238.992188 86.199219 235.316406 C 85.824219 234.339844 85.976562 233.742188 86.199219 233.140625 C 86.425781 232.464844 86.949219 231.714844 87.550781 231.339844 C 88.148438 230.964844 88.976562 230.667969 89.648438 230.742188 C 90.550781 230.890625 91.898438 231.714844 92.425781 232.464844 C 92.875 233.066406 93.023438 233.890625 92.949219 234.640625 C 92.726562 235.542969 91.824219 236.816406 91.074219 237.265625 C 90.476562 237.714844 89.574219 237.867188 88.898438 237.640625 C 88 237.417969 86.726562 236.441406 86.351562 235.691406 C 85.976562 235.015625 85.976562 234.117188 86.125 233.441406 C 86.273438 232.765625 86.726562 232.015625 87.25 231.566406 C 87.773438 231.117188 88.601562 230.816406 89.273438 230.742188 C 90.023438 230.742188 90.476562 230.816406 91.449219 231.339844 C 94.601562 233.367188 105.550781 246.714844 108.851562 250.691406 C 110.199219 252.417969 110.875 253.015625 111.625 254.441406 C 112.523438 256.089844 113.726562 258.566406 113.648438 259.992188 C 113.574219 260.890625 113.125 261.640625 112.601562 262.167969 C 112 262.691406 111.023438 263.066406 110.351562 263.140625 C 109.824219 263.140625 109.300781 263.066406 108.773438 262.765625 C 108.175781 262.464844 107.125 261.042969 107.125 261.042969 " clip-rule="nonzero"/></clipPath><clipPath id="f669bbf942"><path d="M 0.875 0.640625 L 28.761719 0.640625 L 28.761719 33.230469 L 0.875 33.230469 Z M 0.875 0.640625 " clip-rule="nonzero"/></clipPath><clipPath id="8c876612eb"><path d="M 22.125 31.042969 C 17.699219 22.640625 2.550781 8.992188 1.199219 5.316406 C 0.824219 4.339844 0.976562 3.742188 1.199219 3.140625 C 1.425781 2.464844 1.949219 1.714844 2.550781 1.339844 C 3.148438 0.964844 3.976562 0.667969 4.648438 0.742188 C 5.550781 0.890625 6.898438 1.714844 7.425781 2.464844 C 7.875 3.066406 8.023438 3.890625 7.949219 4.640625 C 7.726562 5.542969 6.824219 6.816406 6.074219 7.265625 C 5.476562 7.714844 4.574219 7.867188 3.898438 7.640625 C 3 7.417969 1.726562 6.441406 1.351562 5.691406 C 0.976562 5.015625 0.976562 4.117188 1.125 3.441406 C 1.273438 2.765625 1.726562 2.015625 2.25 1.566406 C 2.773438 1.117188 3.601562 0.816406 4.273438 0.742188 C 5.023438 0.742188 5.476562 0.816406 6.449219 1.339844 C 9.601562 3.367188 20.550781 16.714844 23.851562 20.691406 C 25.199219 22.417969 25.875 23.015625 26.625 24.441406 C 27.523438 26.089844 28.726562 28.566406 28.648438 29.992188 C 28.574219 30.890625 28.125 31.640625 27.601562 32.167969 C 27 32.691406 26.023438 33.066406 25.351562 33.140625 C 24.824219 33.140625 24.300781 33.066406 23.773438 32.765625 C 23.175781 32.464844 22.125 31.042969 22.125 31.042969 " clip-rule="nonzero"/></clipPath><clipPath id="d5c6b048a6"><rect x="0" width="29" y="0" height="34"/></clipPath><clipPath id="6283cc1b74"><path d="M 262.832031 216.632812 L 293.382812 216.632812 L 293.382812 255.425781 L 262.832031 255.425781 Z M 262.832031 216.632812 " clip-rule="nonzero"/></clipPath><clipPath id="23baf4c7d9"><path d="M 262.851562 251 C 268.925781 237.949219 277.25 227.300781 281.375 222.800781 C 283.699219 220.324219 285.726562 218.449219 287.300781 217.476562 C 288.125 216.949219 288.726562 216.648438 289.476562 216.648438 C 290.226562 216.648438 291.125 216.949219 291.726562 217.324219 C 292.324219 217.773438 292.925781 218.523438 293.148438 219.273438 C 293.300781 219.949219 293.300781 220.925781 293.074219 221.601562 C 292.773438 222.351562 292.175781 223.023438 291.574219 223.476562 C 290.976562 223.851562 290.074219 224.148438 289.25 224 C 288.351562 223.851562 286.851562 223.023438 286.398438 222.199219 C 285.875 221.300781 285.800781 219.648438 286.25 218.675781 C 286.699219 217.773438 288.050781 216.800781 289.101562 216.726562 C 290.074219 216.574219 291.648438 217.101562 292.324219 217.851562 C 293 218.675781 293.523438 219.949219 293.148438 221.226562 C 292.476562 223.773438 286.773438 227.300781 283.625 230.976562 C 280.023438 235.25 275.449219 241.398438 272.824219 245.75 C 270.949219 248.824219 270.125 252.800781 268.773438 254.226562 C 268.023438 254.976562 267.273438 255.199219 266.523438 255.351562 C 266 255.425781 265.476562 255.351562 264.949219 255.125 C 264.273438 254.824219 263.449219 254.148438 263.074219 253.476562 C 262.773438 252.726562 262.851562 251 262.851562 251 " clip-rule="nonzero"/></clipPath><clipPath id="0b99eb0dd2"><path d="M 0.832031 0.632812 L 31.382812 0.632812 L 31.382812 39.425781 L 0.832031 39.425781 Z M 0.832031 0.632812 " clip-rule="nonzero"/></clipPath><clipPath id="a58683a42d"><path d="M 0.851562 35 C 6.925781 21.949219 15.25 11.300781 19.375 6.800781 C 21.699219 4.324219 23.726562 2.449219 25.300781 1.476562 C 26.125 0.949219 26.726562 0.648438 27.476562 0.648438 C 28.226562 0.648438 29.125 0.949219 29.726562 1.324219 C 30.324219 1.773438 30.925781 2.523438 31.148438 3.273438 C 31.300781 3.949219 31.300781 4.925781 31.074219 5.601562 C 30.773438 6.351562 30.175781 7.023438 29.574219 7.476562 C 28.976562 7.851562 28.074219 8.148438 27.25 8 C 26.351562 7.851562 24.851562 7.023438 24.398438 6.199219 C 23.875 5.300781 23.800781 3.648438 24.25 2.675781 C 24.699219 1.773438 26.050781 0.800781 27.101562 0.726562 C 28.074219 0.574219 29.648438 1.101562 30.324219 1.851562 C 31 2.675781 31.523438 3.949219 31.148438 5.226562 C 30.476562 7.773438 24.773438 11.300781 21.625 14.976562 C 18.023438 19.25 13.449219 25.398438 10.824219 29.75 C 8.949219 32.824219 8.125 36.800781 6.773438 38.226562 C 6.023438 38.976562 5.273438 39.199219 4.523438 39.351562 C 4 39.425781 3.476562 39.351562 2.949219 39.125 C 2.273438 38.824219 1.449219 38.148438 1.074219 37.476562 C 0.773438 36.726562 0.851562 35 0.851562 35 " clip-rule="nonzero"/></clipPath><clipPath id="c4247a0b59"><rect x="0" width="32" y="0" height="40"/></clipPath></defs><g clip-path="url(#f37a5db1ab)"><g clip-path="url(#094c2530c1)"><g transform="matrix(1, 0, 0, 1, 108, 187)"><g clip-path="url(#11dfbcb390)"><g clip-path="url(#8e55ebd3ff)"><g clip-path="url(#9b0d64932b)"><rect x="-190.5" width="540" fill="#033ad3" height="539.999987" y="-269.499998" fill-opacity="1"/></g></g></g></g></g></g><g clip-path="url(#5f8e1f7104)"><g clip-path="url(#192ba13949)"><g transform="matrix(1, 0, 0, 1, 93, 296)"><g clip-path="url(#e793e79d43)"><g clip-path="url(#93e80a5985)"><g clip-path="url(#39c4bd4fcf)"><rect x="-175.5" width="540" fill="#033ad3" height="539.999987" y="-378.499998" fill-opacity="1"/></g></g></g></g></g></g><g clip-path="url(#73e5117d4a)"><g clip-path="url(#5cbaf6b6f3)"><g clip-path="url(#ae22aaad67)"><g transform="matrix(1, 0, 0, 1, 170, 300)"><g clip-path="url(#6f3ab08dc0)"><g clip-path="url(#9f6b0a86bd)"><g clip-path="url(#5c88390165)"><g clip-path="url(#4f91543834)"><path fill="#033ad3" d="M -3.320312 -5.949219 L 56.96875 -2.992188 L 55.363281 29.707031 L -4.925781 26.75 Z M -3.320312 -5.949219 " fill-opacity="1" fill-rule="nonzero"/></g></g></g></g></g></g></g></g><g clip-path="url(#73e1693b2f)"><g clip-path="url(#39a76d581c)"><g transform="matrix(1, 0, 0, 1, 150, 244)"><g clip-path="url(#37fc4420e7)"><g clip-path="url(#543b8ec6b6)"><g clip-path="url(#3ed29f771a)"><path fill="#033ad3" d="M 0.65625 0.773438 L 7.351562 0.773438 L 7.351562 7.46875 L 0.65625 7.46875 Z M 0.65625 0.773438 " fill-opacity="1" fill-rule="nonzero"/></g></g></g></g></g></g><g clip-path="url(#bab003c12a)"><g clip-path="url(#e3b742c955)"><g transform="matrix(1, 0, 0, 1, 212, 246)"><g clip-path="url(#ebb183defc)"><g clip-path="url(#d19c11ddff)"><g clip-path="url(#dec59c7842)"><path fill="#033ad3" d="M 0.332031 0.941406 L 7.027344 0.941406 L 7.027344 7.636719 L 0.332031 7.636719 Z M 0.332031 0.941406 " fill-opacity="1" fill-rule="nonzero"/></g></g></g></g></g></g><g clip-path="url(#0bd99df0a9)"><g clip-path="url(#ce0f663be0)"><g transform="matrix(1, 0, 0, 1, 161, 128)"><g clip-path="url(#928bc80258)"><g clip-path="url(#2e0ecf6235)"><g clip-path="url(#959781e967)"><rect x="-243.5" width="540" fill="#033ad3" height="539.999987" y="-210.499998" fill-opacity="1"/></g></g></g></g></g></g><g clip-path="url(#aa21dd231f)"><g clip-path="url(#3267c640f9)"><g transform="matrix(1, 0, 0, 1, 128, 28)"><g clip-path="url(#115262a3b9)"><g clip-path="url(#f393d96025)"><g clip-path="url(#60fda81702)"><rect x="-210.5" width="540" fill="#033ad3" height="539.999987" y="-110.499998" fill-opacity="1"/></g></g></g></g></g></g><g clip-path="url(#0fb8d99db3)"><g clip-path="url(#2f52fa2743)"><g transform="matrix(1, 0, 0, 1, 176, 98)"><g clip-path="url(#053b189321)"><g clip-path="url(#0aa8adcdfc)"><g clip-path="url(#46695e6633)"><rect x="-258.5" width="540" fill="#033ad3" height="539.999987" y="-180.499998" fill-opacity="1"/></g></g></g></g></g></g><g clip-path="url(#5ddbf42199)"><g clip-path="url(#1f4bc2f0da)"><g transform="matrix(1, 0, 0, 1, 175, 52)"><g clip-path="url(#b8a143998f)"><g clip-path="url(#f08bb267db)"><g clip-path="url(#e6c4276066)"><rect x="-257.5" width="540" fill="#033ad3" height="539.999987" y="-134.499998" fill-opacity="1"/></g></g></g></g></g></g><g clip-path="url(#ede9d458e5)"><g clip-path="url(#90d43e3d1e)"><g transform="matrix(1, 0, 0, 1, 85, 230)"><g clip-path="url(#d5c6b048a6)"><g clip-path="url(#f669bbf942)"><g clip-path="url(#8c876612eb)"><rect x="-167.5" width="540" fill="#033ad3" height="539.999987" y="-312.499998" fill-opacity="1"/></g></g></g></g></g></g><g clip-path="url(#6283cc1b74)"><g clip-path="url(#23baf4c7d9)"><g transform="matrix(1, 0, 0, 1, 262, 216)"><g clip-path="url(#c4247a0b59)"><g clip-path="url(#0b99eb0dd2)"><g clip-path="url(#a58683a42d)"><rect x="-344.5" width="540" fill="#033ad3" height="539.999987" y="-298.499998" fill-opacity="1"/></g></g></g></g></g></g></svg>